<svg xmlns="http://www.w3.org/2000/svg" viewBox="0 0 100 100">
  <path d="M13.56 89.89L5.55.05h88.09l-8.01 89.84-36.13 10.16" fill="#e34f26"/>
  <path d="M49.69 92.23l29.1-8.01 6.84-76.95H49.69" fill="#ef652a"/>
  <path d="M49.69 40.67H35.05l-.98-11.33h15.62V18.41H21.96l.2 2.93 2.73 30.47h24.8V40.67zm0 28.71h-.2l-12.3-3.32-.78-8.79H25.47l1.37 17.38L49.5 80.9h.2V69.38z" fill="#ebebeb"/>
  <path d="M49.5 40.67V51.8h13.67L61.8 66.06l-12.3 3.32V80.9l22.66-6.25.2-1.95 2.54-29.1.39-2.93H49.5zm0-22.26v10.94h26.76l.2-2.34.59-5.66.2-2.93H49.5z" fill="#fff"/>
</svg>
