<svg xmlns="http://www.w3.org/2000/svg" viewBox="0 0 100 100">
  <style>
    .st2{fill:#ebebeb}
  </style>
  <g id="g3013_2_" transform="translate(119 276.3622)">
    <path id="polygon2989_2_" fill="#264de4" d="M-25.32-276.31l-8.03 89.98-36.11 10.02-36.01-10-8.02-90z"/>
    <path id="polygon2991_2_" fill="#2965f1" d="M-40.23-192.06l6.87-76.9H-69.4v84.99z"/>
    <path id="polygon2993_2_" class="st2" d="M-95.1-235.57l.99 11.03h24.71v-11.03z"/>
    <path id="polygon2995_2_" class="st2" d="M-69.4-257.92h-27.68l1 11.04h26.68z"/>
    <path id="polygon2997_2_" class="st2" d="M-69.4-195.42v-11.49l-.05.02-12.3-3.32-.78-8.81h-11.08l1.54 17.34 22.62 6.27z"/>
    <path id="polygon3005_2_" fill="#fff" d="M-55.85-224.54l-1.28 14.32-12.31 3.32v11.49l22.63-6.27.16-1.87 2.6-29.06.27-2.96 1.99-22.35h-27.65v11.04h15.55l-1 11.31h-14.55v11.03z"/>
  </g>
</svg>
