<svg xmlns="http://www.w3.org/2000/svg" viewBox="0 0 100 100">
  <path d="M82.22 34.35c-1.04-.36-2.11-.69-3.22-1.01.18-.74.35-1.48.5-2.2 2.44-11.83.84-21.36-4.6-24.5-5.22-3.01-13.75.13-22.36 7.63-.83.72-1.66 1.48-2.49 2.28-.55-.53-1.11-1.04-1.66-1.53C39.36 7 30.31 3.62 24.87 6.77c-5.21 3.02-6.76 11.98-4.56 23.19.21 1.08.46 2.19.74 3.31-1.28.36-2.52.75-3.7 1.16C6.76 38.13 0 43.92 0 49.92c0 6.2 7.26 12.41 18.29 16.18.87.3 1.77.58 2.7.85-.3 1.22-.56 2.41-.79 3.57-2.09 11.02-.46 19.76 4.74 22.76 5.37 3.1 14.38-.09 23.15-7.76.69-.61 1.39-1.25 2.09-1.92.9.87 1.81 1.69 2.7 2.47 8.5 7.31 16.89 10.27 22.09 7.26 5.36-3.11 7.11-12.5 4.84-23.93-.17-.87-.37-1.77-.6-2.67.63-.19 1.25-.38 1.86-.58C92.54 62.34 100 56.2 100 49.92c0-6.03-6.98-11.85-17.78-15.57zm-2.49 27.73c-.55.18-1.11.36-1.68.53-1.27-4.01-2.97-8.27-5.06-12.67 1.99-4.3 3.64-8.5 4.87-12.48 1.02.3 2.02.61 2.97.94 9.25 3.19 14.9 7.9 14.9 11.52 0 3.86-6.1 8.88-16 12.16zm-4.1 8.14c1 5.05 1.14 9.63.48 13.2-.6 3.21-1.79 5.35-3.27 6.21-3.15 1.82-9.89-.55-17.16-6.8-.83-.72-1.67-1.48-2.51-2.29 2.82-3.08 5.63-6.66 8.38-10.64 4.83-.43 9.4-1.13 13.54-2.09.2.81.38 1.62.54 2.41zM34.09 89.31c-3.08 1.09-5.53 1.12-7.01.26-3.15-1.82-4.47-8.84-2.68-18.26.2-1.08.45-2.19.73-3.32 4.1.91 8.63 1.56 13.48 1.95 2.77 3.89 5.66 7.47 8.58 10.61-.64.62-1.27 1.2-1.91 1.75-3.87 3.39-7.76 5.8-11.19 7.01zM19.67 62.06c-4.88-1.67-8.9-3.83-11.66-6.2-2.48-2.12-3.73-4.23-3.73-5.94 0-3.64 5.43-8.29 14.48-11.44 1.1-.38 2.25-.74 3.44-1.08 1.25 4.07 2.89 8.33 4.87 12.63-2.01 4.37-3.67 8.69-4.94 12.81-.85-.26-1.67-.51-2.46-.78zm4.83-32.92c-1.88-9.6-.63-16.85 2.51-18.67 3.35-1.94 10.74.82 18.54 7.75.5.44 1 .91 1.5 1.38-2.91 3.12-5.78 6.67-8.52 10.54-4.7.44-9.21 1.14-13.34 2.07-.26-1.03-.49-2.06-.69-3.07zm43.14 10.65c-.99-1.71-2.01-3.38-3.04-5 3.19.4 6.25.94 9.12 1.59-.86 2.76-1.94 5.65-3.2 8.61-.91-1.71-1.87-3.45-2.88-5.2zM50.05 22.66c1.97 2.13 3.94 4.52 5.88 7.1-1.95-.09-3.93-.14-5.93-.14-1.98 0-3.94.05-5.89.14 1.95-2.56 3.94-4.94 5.94-7.1zM32.34 39.82c-.99 1.71-1.93 3.44-2.82 5.17-1.24-2.95-2.31-5.85-3.18-8.65 2.85-.64 5.9-1.16 9.07-1.56-1.05 1.64-2.07 3.32-3.07 5.04zm3.16 25.53c-3.28-.37-6.36-.86-9.22-1.48.88-2.85 1.97-5.81 3.24-8.83.9 1.73 1.84 3.46 2.83 5.17 1.02 1.76 2.07 3.47 3.15 5.14zm14.67 12.12c-2.02-2.18-4.04-4.6-6.02-7.2 1.91.08 3.87.11 5.85.11 2.04 0 4.05-.05 6.04-.13-1.95 2.65-3.92 5.07-5.87 7.22zm20.39-22.58c1.34 3.05 2.46 5.99 3.36 8.8-2.9.66-6.03 1.19-9.33 1.59 1.04-1.65 2.06-3.34 3.07-5.09 1.01-1.77 1.98-3.54 2.9-5.3zm-6.61 3.16c-1.56 2.71-3.17 5.3-4.8 7.74-2.96.21-6.03.32-9.15.32-3.11 0-6.14-.1-9.05-.29-1.69-2.47-3.33-5.07-4.89-7.75-1.55-2.68-2.97-5.37-4.27-8.06 1.29-2.69 2.71-5.39 4.25-8.06 1.54-2.68 3.17-5.26 4.85-7.72 2.97-.22 6.02-.34 9.11-.34 3.1 0 6.15.12 9.12.34 1.65 2.44 3.27 5.01 4.82 7.69 1.57 2.71 3.01 5.39 4.31 8.02-1.3 2.69-2.73 5.4-4.3 8.11zm8.82-47.7c3.35 1.93 4.65 9.72 2.55 19.93-.13.65-.29 1.32-.45 1.99-4.15-.96-8.65-1.67-13.37-2.11-2.75-3.91-5.6-7.47-8.45-10.55.77-.74 1.54-1.44 2.3-2.11 7.37-6.43 14.27-8.97 17.42-7.15zM50 40.99c4.93 0 8.93 4 8.93 8.93s-4 8.93-8.93 8.93-8.93-4-8.93-8.93c0-4.94 4-8.93 8.93-8.93" fill="#61dafb"/>
</svg>
