<svg version="1.1" id="Calque_1" xmlns="http://www.w3.org/2000/svg" x="0" y="0" viewBox="0 0 100 100" xml:space="preserve">
  <style>
    .st0{fill:#e535ab}
  </style>
  <path transform="rotate(-60 32.21476525 39.74062659)" class="st0" d="M-8.68 37.62h81.79v4.24H-8.68z"/>
  <path class="st0" d="M9.09 68.44h81.79v4.24H9.09z"/>
  <path transform="rotate(-60 32.22381225 80.79515719)" class="st0" d="M30.11 57.17h4.24v47.24h-4.24z"/>
  <path transform="rotate(-60 67.76524767 19.23259103)" class="st0" d="M65.65-4.39h4.24v47.24h-4.24z"/>
  <path transform="rotate(-30 32.23580588 19.21639598)" class="st0" d="M8.62 17.1h47.24v4.24H8.62z"/>
  <path transform="rotate(-30 67.79312648 39.7435579)" class="st0" d="M65.67-1.16h4.24v81.79h-4.24z"/>
  <path class="st0" d="M12.33 26.38h4.24v47.24h-4.24zM83.43 26.38h4.24v47.24h-4.24z"/>
  <path transform="rotate(-30 67.76225276 80.77368374)" class="st0" d="M47.22 78.92h41.09v3.7H47.22z"/>
  <path class="st0" d="M93.28 75c-2.45 4.26-7.92 5.72-12.18 3.27s-5.72-7.92-3.27-12.18c2.45-4.26 7.92-5.72 12.18-3.27 4.3 2.48 5.75 7.92 3.27 12.18M22.14 33.91c-2.45 4.26-7.92 5.72-12.18 3.27S4.24 29.26 6.69 25s7.92-5.72 12.18-3.27c4.27 2.48 5.72 7.92 3.27 12.18M6.72 75c-2.45-4.26-1-9.7 3.27-12.18 4.26-2.45 9.7-1 12.18 3.27 2.45 4.26 1 9.7-3.27 12.18-4.29 2.45-9.73.99-12.18-3.27M77.86 33.91c-2.45-4.26-1-9.7 3.27-12.18 4.26-2.45 9.7-1 12.18 3.27 2.45 4.26 1 9.7-3.27 12.18-4.26 2.45-9.73 1-12.18-3.27M50 100c-4.93 0-8.91-3.98-8.91-8.91s3.98-8.91 8.91-8.91 8.91 3.98 8.91 8.91c0 4.9-3.98 8.91-8.91 8.91M50 17.82c-4.93 0-8.91-3.98-8.91-8.91S45.07 0 50 0s8.91 3.98 8.91 8.91-3.98 8.91-8.91 8.91"/>
</svg>
