<svg xmlns="http://www.w3.org/2000/svg" viewBox="0 0 100 100">
  <path d="M86.08 55.56c-3.5.02-6.52.86-9.06 2.11-.94-1.86-1.88-3.48-2.03-4.69-.18-1.41-.39-2.27-.18-3.95S76 44.97 76 44.77c-.02-.18-.21-1.04-2.23-1.05-2.01-.02-3.75.39-3.95.92-.2.53-.59 1.74-.84 2.99-.35 1.84-4.02 8.34-6.11 11.76-.68-1.33-1.27-2.5-1.39-3.44-.18-1.41-.39-2.27-.18-3.95.21-1.68 1.19-4.06 1.19-4.26-.02-.18-.21-1.04-2.23-1.05-2.01-.02-3.75.39-3.95.92-.2.53-.41 1.78-.84 2.99-.41 1.21-5.29 12.07-6.56 14.9-.64 1.45-1.21 2.6-1.62 3.38-.41.78-.02.06-.06.14-.35.66-.55 1.04-.55 1.04v.02c-.27.49-.57.96-.7.96-.1 0-.29-1.31.04-3.11.72-3.77 2.48-9.65 2.46-9.86 0-.1.33-1.13-1.13-1.66-1.43-.53-1.93.35-2.05.35s-.21.31-.21.31 1.58-6.62-3.03-6.62c-2.89 0-6.88 3.14-8.85 6.02-1.25.68-3.91 2.13-6.72 3.67-1.07.59-2.19 1.21-3.24 1.78l-.21-.23C17.47 55.72 7.13 51.5 7.56 43.49c.16-2.91 1.17-10.59 19.85-19.88 15.29-7.62 27.54-5.53 29.67-.88 3.03 6.64-6.54 18.99-22.44 20.76-6.06.68-9.24-1.66-10.04-2.54-.84-.92-.96-.96-1.27-.78-.51.27-.2 1.09 0 1.58.47 1.23 2.42 3.42 5.74 4.51 2.91.96 10.02 1.48 18.61-1.84 9.63-3.73 17.15-14.08 14.94-22.74-2.25-8.81-16.86-11.7-30.67-6.8-8.22 2.93-17.13 7.5-23.54 13.5C.8 35.5-.41 41.72.1 44.29c1.78 9.2 14.45 15.2 19.53 19.63-.25.14-.49.27-.7.39-2.54 1.25-12.21 6.31-14.63 11.67-2.73 6.06.43 10.41 2.54 11 6.52 1.82 13.2-1.45 16.82-6.82 3.59-5.37 3.16-12.34 1.5-15.53l-.06-.12 1.99-1.17c1.29-.76 2.56-1.46 3.67-2.07-.63 1.7-1.07 3.71-1.31 6.64-.27 3.44 1.13 7.89 2.99 9.65.82.76 1.8.78 2.4.78 2.15 0 3.13-1.78 4.2-3.91 1.33-2.6 2.5-5.61 2.5-5.61s-1.46 8.15 2.54 8.15c1.46 0 2.93-1.89 3.59-2.87v.02s.04-.06.12-.2c.16-.23.23-.37.23-.37v-.04c.59-1.02 1.89-3.34 3.85-7.19 2.52-4.96 4.94-11.17 4.94-11.17s.23 1.52.96 4.02c.43 1.48 1.37 3.11 2.09 4.69-.59.82-.94 1.29-.94 1.29l.02.02c-.47.63-1 1.29-1.54 1.95-1.99 2.38-4.38 5.1-4.69 5.88-.37.92-.29 1.6.43 2.15.53.39 1.46.47 2.46.39 1.8-.12 3.05-.57 3.67-.84.98-.35 2.09-.88 3.16-1.66 1.95-1.45 3.14-3.5 3.03-6.23-.06-1.5-.55-2.99-1.15-4.39.18-.25.35-.51.53-.78 3.09-4.51 5.47-9.47 5.47-9.47s.23 1.52.96 4.02c.37 1.27 1.11 2.66 1.78 4.02-2.89 2.36-4.71 5.1-5.33 6.9-1.15 3.32-.25 4.82 1.45 5.18.76.16 1.86-.2 2.68-.55 1.02-.33 2.25-.9 3.38-1.74 1.95-1.45 3.83-3.46 3.73-6.17-.06-1.25-.39-2.48-.84-3.65 2.46-1.02 5.65-1.6 9.69-1.11 8.69 1.02 10.41 6.45 10.08 8.71-.33 2.27-2.15 3.52-2.75 3.91-.61.37-.8.51-.74.78.08.41.35.39.88.31.72-.12 4.57-1.86 4.73-6.04.22-5.37-4.88-11.23-13.93-11.18zm-67.03 22.6c-2.87 3.14-6.91 4.34-8.63 3.32-1.86-1.07-1.13-5.7 2.4-9.04 2.15-2.03 4.94-3.91 6.78-5.06.41-.25 1.04-.63 1.78-1.07.12-.08.2-.12.2-.12.14-.08.29-.18.45-.27 1.3 4.76.05 8.94-2.98 12.24zm21-14.28c-1 2.44-3.11 8.71-4.38 8.36-1.09-.29-1.76-5.04-.21-9.73.78-2.36 2.44-5.18 3.42-6.27 1.58-1.76 3.3-2.34 3.73-1.62.5.94-1.94 7.74-2.56 9.26zm17.32 8.29c-.43.21-.82.37-1 .25-.14-.08.18-.37.18-.37s2.17-2.32 3.03-3.4c.49-.63 1.07-1.35 1.7-2.17v.23c0 2.82-2.7 4.7-3.91 5.46zm13.36-3.05c-.31-.23-.27-.96.78-3.22.41-.9 1.35-2.4 2.97-3.83.2.59.31 1.15.29 1.68-.01 3.51-2.51 4.82-4.04 5.37z" fill="#cf649a"/>
</svg>
