<svg xmlns="http://www.w3.org/2000/svg" viewBox="0 0 100 100">
  <path d="M14.01 89.89L6 .05h88.09l-8.01 89.84-36.13 10.16" fill="#e34f26"/>
  <path d="M50.15 92.23l29.1-8.01 6.84-76.95H50.15" fill="#ef652a"/>
  <path d="M50.15 40.67H35.5l-.98-11.33h15.62V18.41H22.41l.2 2.93 2.73 30.47h24.8V40.67zm0 28.71h-.2l-12.3-3.32-.78-8.79H25.92l1.37 17.38 22.66 6.25h.2V69.38z" fill="#ebebeb"/>
  <path d="M49.95 40.67V51.8h13.67l-1.37 14.26-12.3 3.32V80.9l22.66-6.25.2-1.95 2.54-29.1.39-2.93H49.95zm0-22.26v10.94h26.76L76.9 27l.59-5.66.2-2.93H49.95z" fill="#fff"/>
</svg>
