<svg xmlns="http://www.w3.org/2000/svg" viewBox="0 0 100 100">
  <circle cx="50" cy="50" r="43.5" fill="#fff"/>
  <path d="M50 0C22.39 0 0 22.39 0 50s22.39 50 50 50 50-22.39 50-50S77.61 0 50 0zM10.74 50.52l38.73 38.74c-21.26-.28-38.45-17.47-38.73-38.74zm48.05 37.75L11.73 41.21C15.72 23.76 31.34 10.74 50 10.74c13.05 0 24.6 6.36 31.74 16.16l-5.44 4.8C70.52 23.38 60.89 17.95 50 17.95c-13.87 0-25.68 8.81-30.14 21.14l41.06 41.06c9.97-3.61 17.64-12.03 20.21-22.45H64.1V50h25.16c0 18.66-13.02 34.28-30.47 38.27z" fill="#744c9e"/>
</svg>
