<svg xmlns="http://www.w3.org/2000/svg" viewBox="0 0 100 100">
  <path fill="#f7df1e" d="M0 0h100v100H0z"/>
  <path d="M26.29 83.57l7.65-4.63c1.48 2.62 2.82 4.83 6.04 4.83 3.09 0 5.03-1.21 5.03-5.91V45.91h9.4V78c0 9.73-5.71 14.16-14.03 14.16-7.51 0-11.87-3.89-14.09-8.59M59.52 82.56l7.65-4.43c2.01 3.29 4.63 5.71 9.26 5.71 3.89 0 6.38-1.95 6.38-4.63 0-3.22-2.55-4.36-6.85-6.24l-2.35-1.01c-6.78-2.89-11.28-6.51-11.28-14.16 0-7.05 5.37-12.42 13.76-12.42 5.97 0 10.27 2.08 13.36 7.52l-7.32 4.7c-1.61-2.89-3.36-4.03-6.04-4.03-2.75 0-4.5 1.75-4.5 4.03 0 2.82 1.75 3.96 5.77 5.71l2.35 1.01c7.99 3.42 12.49 6.91 12.49 14.77 0 8.46-6.65 13.09-15.57 13.09-8.72-.02-14.35-4.18-17.11-9.62"/>
</svg>
