<svg xmlns="http://www.w3.org/2000/svg" viewBox="0 0 100 100">
  <radialGradient id="a" cx="38.4578" cy="62.7964" r="2.6138" gradientTransform="matrix(0 38.301 44.1227 0 -2720.7517 -1473.0798)" gradientUnits="userSpaceOnUse">
    <stop offset="0" stop-color="#20c6b7"/>
    <stop offset="1" stop-color="#4d9abf"/>
  </radialGradient>
  <path d="M72.47 34.69l-.04-.02-.06-.03c-.06-.07-.09-.15-.07-.24l2.02-12.34 9.46 9.47-9.84 4.19c-.03.01-.06.02-.09.02h-.04c-.01-.01-.03-.02-.05-.04-.36-.43-.8-.76-1.29-1.01zm13.73-.76l10.12 10.12c2.1 2.1 3.15 3.15 3.54 4.37.06.18.1.36.14.55L75.82 38.73c-.01-.01-.03-.01-.04-.02-.1-.04-.21-.08-.21-.18 0-.1.11-.15.21-.19l.03-.01 10.39-4.4zm13.39 18.29c-.52.98-1.54 2-3.26 3.73l-11.42 11.4-14.76-3.07-.08-.02c-.13-.02-.27-.04-.27-.16-.11-1.23-.73-2.36-1.71-3.11-.06-.06-.04-.15-.03-.24 0-.01 0-.03.01-.04l2.78-17.04.01-.06c.02-.13.04-.28.16-.28 1.2-.15 2.29-.77 3.03-1.74.02-.03.04-.05.07-.07.08-.04.18 0 .27.04l25.2 10.66zm-17.3 17.75L63.53 88.74 66.74 69l.01-.03c0-.03.01-.05.02-.08.03-.06.09-.09.16-.11l.03-.01c.7-.3 1.33-.76 1.81-1.35.06-.07.14-.14.23-.16h.08l13.21 2.71zM59.56 92.71l-2.11 2.11-23.39-33.79c-.01-.01-.02-.02-.03-.04-.04-.05-.08-.1-.07-.16 0-.04.03-.08.06-.11l.03-.03c.07-.1.13-.21.2-.32l.05-.09.01-.01c.04-.06.07-.12.13-.16.05-.03.13-.02.19 0l25.9 5.34c.07.01.14.04.2.09.03.03.04.07.05.11.37 1.39 1.36 2.52 2.68 3.07.07.04.04.12.01.2-.02.04-.03.08-.04.12-.32 1.99-3.12 19.06-3.87 23.67zm-4.42 4.41c-1.56 1.54-2.48 2.36-3.52 2.69-1.02.32-2.12.32-3.15 0-1.22-.39-2.27-1.44-4.37-3.54L20.62 72.79l6.13-9.51c.03-.05.06-.09.1-.12.07-.05.16-.03.24 0 1.41.42 2.92.35 4.28-.22.07-.03.14-.04.2.01.03.03.05.05.07.08l23.5 34.09zM18.36 70.53l-5.39-5.39 10.64-4.54c.03-.01.06-.02.09-.02.09 0 .14.09.19.17.11.16.22.32.34.48l.03.04c.03.04.01.09-.02.13l-5.88 9.13zm-7.77-7.77l-6.81-6.81c-1.16-1.16-2-2-2.58-2.72l20.72 4.3c.03 0 .05.01.08.01.13.02.27.04.27.16 0 .13-.15.19-.28.24l-.06.03c-.02-.01-11.34 4.79-11.34 4.79zM0 49.72c.02-.44.1-.87.23-1.29.39-1.22 1.44-2.27 3.54-4.37l8.72-8.72c4.02 5.83 8.04 11.65 12.08 17.46.07.09.15.2.07.28-.38.42-.76.88-1.03 1.38-.03.06-.07.12-.13.16-.03.02-.07.01-.11.01h-.01L0 49.72zM14.83 33l11.73-11.73c1.1.48 5.11 2.18 8.7 3.69 2.72 1.15 5.19 2.19 5.97 2.53.08.03.15.06.18.14.02.05.01.11 0 .16-.38 1.72.14 3.51 1.37 4.77.08.08 0 .19-.07.29l-.04.05-11.91 18.45c-.03.05-.06.1-.11.13-.06.04-.15.02-.22 0-.46-.12-.94-.19-1.42-.19-.43 0-.89.08-1.36.16-.05.01-.1.02-.14-.01-.05-.04-.09-.08-.12-.13-.01 0-12.56-18.31-12.56-18.31zm14.09-14.09L44.1 3.73c2.1-2.1 3.15-3.15 4.37-3.54 1.02-.32 2.12-.32 3.15 0 1.22.38 2.27 1.44 4.37 3.54l3.29 3.29-10.8 16.72c-.03.05-.06.09-.11.13-.07.04-.16.03-.23 0-1.73-.52-3.6-.16-5.01.97-.07.07-.17.03-.26-.01-1.41-.62-12.38-5.26-13.95-5.92zm32.66-9.6l9.97 9.97-2.4 14.88v.04c0 .03-.01.07-.02.1-.03.05-.08.06-.13.08-.51.16-1 .4-1.43.71-.02.01-.04.03-.05.04-.03.03-.06.06-.1.07-.04 0-.08-.01-.11-.02L52.1 28.72l-.03-.01c-.1-.04-.21-.09-.21-.19-.09-.85-.37-1.66-.81-2.39-.07-.12-.15-.25-.09-.37L61.58 9.31zM51.31 31.78l14.24 6.03c.08.04.16.07.2.15.01.05.01.1 0 .15-.04.21-.08.45-.08.69v.4c0 .1-.1.14-.2.18l-.03.01c-2.26.96-31.67 13.51-31.71 13.51-.04 0-.09 0-.14-.04-.08-.08 0-.19.07-.29.01-.02.02-.03.04-.05L45.4 34.4l.02-.03c.07-.11.15-.23.27-.23l.12.02c.27.04.5.07.74.07 1.78 0 3.42-.86 4.41-2.34.02-.04.05-.07.09-.1.07-.08.18-.05.26-.01zM35 55.76l32.06-13.67s.05 0 .09.04c.17.17.32.29.47.4l.07.04c.07.04.13.08.14.15 0 .03 0 .04-.01.07l-2.75 16.87-.01.07c-.02.13-.04.28-.16.28-1.49.1-2.83.93-3.58 2.21l-.01.02c-.04.06-.07.12-.13.15-.05.03-.13.02-.18 0l-25.57-5.27c-.03-.01-.4-1.36-.43-1.36z" fill="url(#a)"/>
</svg>
