<svg width="300" height="332" xmlns="http://www.w3.org/2000/svg" xmlns:xlink="http://www.w3.org/1999/xlink">
  <defs>
    <path id="a" d="M0 .39830677h158.366534V115.338645H0z"/>
    <path d="M.275498 5.56673307c1.77131475 4.38466135 6.06035857 7.48087653 11.0790837 7.48087653 5.0211155 0 9.3113546-3.09920323 11.0814741-7.48625502-.0119522-.32330677-.3519921-5.3623506-10.1850598-5.3623506-9.93645417 0-11.8942231 5.14183267-11.975498 5.36772909" id="c"/>
    <path d="M.27310757 5.56135458C2.04322709 9.94840637 6.33346614 13.0476096 11.3545817 13.0476096c5.0193227 0 9.3077689-3.09621518 11.0790836-7.48087653-.0812749-.22529881-2.0390438-5.36772909-11.975498-5.36772909-9.8336653 0-10.17370515 5.03904383-10.18505973 5.3623506" id="f"/>
    <linearGradient x1="49.9993798%" y1="100.002166%" x2="49.9993798%" y2=".00216558%" id="d">
      <stop stop-color="#E69746" offset="0%"/>
      <stop stop-color="#7C361C" offset="100%"/>
    </linearGradient>
    <linearGradient x1="50.0006202%" y1="100.002166%" x2="50.0006202%" y2=".00216558%" id="g">
      <stop stop-color="#E69746" offset="0%"/>
      <stop stop-color="#7C361C" offset="100%"/>
    </linearGradient>
  </defs>
  <g fill="none" fill-rule="evenodd">
    <path d="M300 150.597909c0 82.84243-67.15757 150-150 150-82.8430279 0-150-67.15757-150-150C0 67.7548807 67.1569721.59790857 150 .59790857c82.84243 0 150 67.15697213 150 150.00000043" fill="#C7FF84"/>
    <g transform="translate(71.115538 215.836853)">
      <mask id="b" fill="#fff">
        <use xlink:href="#a"/>
      </mask>
      <path d="M158.366534 57.8686255c0 31.7396414-35.451395 57.4703185-79.1832671 57.4703185C35.4513944 115.338944 0 89.6082669 0 57.8686255 0 26.1289841 35.4513944.39830677 79.1832669.39830677c43.7318721 0 79.1832671 25.73067733 79.1832671 57.47031873" fill="#192C4A" mask="url(#b)"/>
    </g>
    <path d="M172.410359 222.012251c0 14.192032-9.899403 25.697211-22.111554 25.697211-12.212152 0-22.111554-11.505179-22.111554-25.697211s9.899402-25.697211 22.111554-25.697211c12.212151 0 22.111554 11.505179 22.111554 25.697211" fill="#B59674"/>
    <path d="M98.9043825 265.936554c0-.825299-.6687251-1.494024-1.4940239-1.494024s-1.4940239.668725-1.4940239 1.494024v49.538247c.9310757.638845 1.8836653 1.260956 2.8565737 1.866932.0830677-.186454.1314741-.391434.1314741-.608366v-50.796813zM201.693227 265.936554c0-.825299.668725-1.494024 1.494024-1.494024s1.494024.668725 1.494024 1.494024v49.538247c-.931076.638845-1.883068 1.260956-2.855976 1.866932-.083666-.186454-.132072-.391434-.132072-.608366v-50.796813z" fill="#131F34"/>
    <path d="M83.5591434 208.267231s-9.7541832 0-13.3398406-1.195219c-3.5856574-1.195219-12.5498008-6.573705-15.5378486-15.537848-2.9880478-8.964144-.7930279-15.675897 1.7928287-19.123506 3.5856573-4.780877 13.7450199-8.366534 13.7450199-8.366534s6.2749004-8.665339 8.0677291 10.458167c1.7928287 19.123506 5.2721115 33.76494 5.2721115 33.76494M217.038466 208.267231s9.754183 0 13.339841-1.195219c3.585657-1.195219 12.549801-6.573705 15.537848-15.537848 2.988048-8.964144.793028-15.675897-1.792828-19.123506-3.585658-4.780877-13.74502-8.366534-13.74502-8.366534s-6.274901-8.665339-8.067729 10.458167c-1.792829 19.123506-5.272112 33.76494-5.272112 33.76494" fill="#EDC79A"/>
    <path d="M222.609562 195.119821s5.378486-1.195219 5.976095-5.378486c.513945-3.598207-1.792828-4.991235-1.792828-4.991235l4.657769-6.869522s3.111155 1.103785 4.306374 6.482271c1.174303 5.282868-2.390438 7.171315-4.183267 8.964143-1.792829 1.792829-4.183267 9.561753-4.183267 9.561753-1.792828-5.378486-5.976095-4.780876-5.976095-4.780876M233.741235 174.502291l1.418128-2.091633s2.390438-2.390439 4.780876 0c2.390438 2.390438 2.988048 5.976095 2.988048 5.976095s1.792829 5.976096-1.195219 12.549801c0 0 1.195219-6.573705-2.390439-11.354582-3.585657-4.780876-5.601394-5.079681-5.601394-5.079681M77.9880478 195.119821s-5.378486-1.195219-5.9760956-5.378486c-.5139442-3.598207 1.7928287-4.991235 1.7928287-4.991235l-4.6577689-6.869522s-3.1111554 1.103785-4.3063745 6.482271c-1.1737052 5.282868 2.3904382 7.171315 4.1832669 8.964143 1.7928287 1.792829 4.1832669 9.561753 4.1832669 9.561753 1.7928287-5.378486 5.9760956-4.780876 5.9760956-4.780876" fill="#D9AB77"/>
    <path d="M150.298805 57.0720122c20.318725 0 38.844621 2.3904382 55.577689 11.9521912 19.689442 11.2511952 31.673307 32.8685256 32.868526 49.0039836 1.195219 16.135459-1.195219 25.099602-2.390438 35.258965-1.195219 10.159362-2.390439 16.135458-2.390439 16.135458l-7.560517-.027529c.257648 2.071653.389203 4.174242.389203 6.302429 0 33.500199-23.306773 58.266932-76.494024 58.266932-53.1872512 0-76.4940241-24.766733-76.4940241-58.266932 0-2.313158.1554162-4.596074.4592371-6.841895l-8.825771-.030615s0-5.378486-1.1952191-15.537848c-1.1952191-10.159363-3.5856574-19.123506-2.3904383-35.258965 1.1952192-16.135458 13.1784861-37.7527884 32.8685259-49.0039836 16.7330675-9.561753 35.2589645-11.9521912 55.5776895-11.9521912z" fill="#EDC79A"/>
    <path d="M164.043825 208.267231s-5.378486 4.780877-13.74502 4.780877c-8.366534 0-13.74502-4.780877-13.74502-4.780877" stroke="#D18270" stroke-width="3" stroke-linecap="round" stroke-linejoin="round"/>
    <path d="M129.98008 162.848905s-4.183267-8.366534-19.123506-8.366534c-7.196415 0-12.3627493.802589-19.1235063 4.183267-4.7808765 2.390438-5.378486 4.780876-5.378486 4.780876s0 1.195219.5976095 2.988048c.1888447.567131.5599602 2.091036 1.6559761 3.909562 2.3689243 3.930478 8.1364542 9.237848 22.8460157 9.237848 21.513944 0 18.525897-16.733067 18.525897-16.733067" fill="#FFF"/>
    <path d="M88.6078685 170.344124c-1.0960159-1.818526-1.4665338-3.342431-1.6559761-3.909562-.5976095-1.792829-.5976095-2.988048-.5976095-2.988048s-1.1952192-3.585657 3.5856573-5.976095c6.7613546-3.380678 13.7450198-4.183267 20.9163348-3.585658 4.513745.375897 11.408964 1.6751 15.537849 4.183267 2.43227 1.477291 3.585657 4.780877 3.585657 4.780877l.113546 2.982669s-1.906375-3.580279-16.846614-3.580279c-16.7330676 0-19.7211154 1.195219-22.7091632 2.988048-2.9880478 1.792829-2.4448207 4.171912-2.4448207 4.171912l.5151394.932869z" fill="#D9D9D9"/>
    <path d="M125.498008 164.641733c0 7.756375-6.28745 14.043825-14.043825 14.043825-7.756374 0-14.0438244-6.28745-14.0438244-14.043825 0-4.715139 2.3235059-8.886454 5.8876494-11.434063 2.299004-1.642829 5.11494-.518128 8.156175-.518128 3.745219 0 7.148008-.625697 9.665737 1.763546 2.696415 2.558964 4.378088 6.17749 4.378088 10.188645" fill="#361D1B"/>
    <g transform="translate(100.996016 163.844821)">
      <mask id="e" fill="#fff">
        <use xlink:href="#c"/>
      </mask>
      <path d="M.275498 5.56673307c1.77131475 4.38466135 6.06035857 7.48087653 11.0790837 7.48087653 5.0211155 0 9.3113546-3.09920323 11.0814741-7.48625502-.0119522-.32330677-.3519921-5.3623506-10.1850598-5.3623506-9.93645417 0-11.8942231 5.14183267-11.975498 5.36772909" fill="url(#d)" mask="url(#e)"/>
    </g>
    <g>
      <path d="M112.3505973 152.988346c-6.6011952 0-11.9521912 5.350996-11.9521912 11.952192 0 1.581872.3143426 3.089043.8731075 4.470717.0812749-.225299 2.0390439-5.367132 11.9754981-5.367132 9.8336653 0 10.1731075 5.039044 10.1850597 5.362351.5569721-1.381076.8707171-2.885857.8707171-4.465936 0-6.601196-5.350996-11.952192-11.9521912-11.952192" fill="#521F0F"/>
      <path d="M117.1314738 163.745318c0 2.310359-1.6057769 4.183267-3.5856574 4.183267-1.9798804 0-3.5856573-1.872908-3.5856573-4.183267 0-2.310358 1.6057769-4.183267 3.5856573-4.183267 1.9798805 0 3.5856574 1.872909 3.5856574 4.183267" fill="#361D1B"/>
      <path d="M134.1633463 155.677589s-9.561753-4.183267-19.7211155-6.573705c-10.1593626-2.390438-20.8296813-5.23506-32.2278885-.227091 0 0 1.1521913-5.749004 5.3354582-7.541833 4.1832669-1.792829 7.7689243-2.390438 16.7330677-.59761 8.9641435 1.792829 17.8912351 4.247211 25.0996016 8.366534 4.183267 2.390438 4.7808765 6.573705 4.7808765 6.573705" fill="#000"/>
      <path d="M150.2988045 57.0720116c-20.3187251 0-38.8446215 2.3904383-55.5776893 11.9521913-19.6900398 11.2511952-31.67330673 32.8685259-32.86852586 49.003984-1.19521912 16.1354582 1.19521913 25.0996021 2.39043825 35.2589641 1.19521912 10.159363 2.09163347 6.2749 2.09163347 6.2749s4.48207171-3.286852 4.48207171-17.629482c0-14.3426291 3.58565733-32.2709159 14.34262953-41.2350594 10.7569721-8.9641434 15.8366533-11.0557768 21.5139442-10.7569721 10.2155378.5378486 17.9282868 4.7808765 43.625498 4.7808765 21.5139445 0 33.4661355-3.5856573 43.6254975-4.7808765 10.159363-1.1952191 10.756973 1.7928287 21.513945 10.7569721 10.756972 8.9641435 14.342629 26.8924303 14.342629 41.2350594 0 14.34263 5.677291 18.227092 5.677291 18.227092s-.298805 3.286853.896414-6.87251c1.195219-10.159362 3.585658-19.1235059 2.390439-35.2589641-1.19522-16.1354581-13.179084-37.7527888-32.868526-49.003984-16.733068-9.561753-35.258964-11.9521913-55.5776895-11.9521913" fill="#000"/>
      <path d="M94.4223105 69.3230077s16.1354581-24.50199207 41.8326693-29.88047813l-6.5737052 12.54980083s13.1474104-8.96414346 47.8087654-11.35458171L160.1593623 53.7851591s18.5258967-5.97609567 51.3944227-4.183267L190.03984 59.7612547s17.330678 0 34.063745 3.5856573l-17.928286 5.9760957" fill="#000"/>
      <path d="M149.4023901 188.84492c-.8964143.298805-.8964143 1.494024-.2988047 2.689243.7559761 1.511952 2.689243.896414 2.689243.896414s-.9454183-4.067928-2.3904383-3.585657" fill="#D18270"/>
      <path d="M149.1035854 188.546115s-.5976096 0 0-1.195219c.5976095-1.195219 1.7928286-1.792829 1.7928286-1.792829s1.1952192 1.19522 0 2.390439c-1.1952191 1.195219-1.7928286.597609-1.7928286.597609" fill="#F8E6CC"/>
      <path d="M119.0214738 157.405637c.3316733.755379-.3794821 1.798207-1.5878486 2.328885-1.2089641.531275-2.4579681.349004-2.7896414-.406375-.3316733-.755378.379482-1.798207 1.5878486-2.329482 1.2089641-.530677 2.4579681-.349004 2.7896414.406972" fill="#FFF"/>
      <path d="M86.3545814 163.446514s.5976095-2.390439 5.378486-4.780877c6.760757-3.380677 11.9270917-2.988048 19.123506-2.988048 14.9402391 0 19.123506 7.171315 19.123506 7.171315l4.7808765 2.988048s-2.9880478-4.183267-6.5737052-7.768924c-.6711155-.671116-1.3631474-1.36255-2.1227092-2.044423-3.3005976-2.960558-5.4926294-4.529283-15.2079681-4.529283-4.4121514 0-11.0151394-.469123-14.7525896.69502-3.8563745 1.200598-7.2071713 2.867331-9.7494024 4.683466-4.183267 2.988048-5.3784861 5.378487-5.3784861 5.378487 1.2812749 2.561952 4.9266932 5.833266 6.9047809 7.492828.2790837.234263.5252988.436853.7272908.6-1.0960159-1.818526-1.4671314-3.34243-1.6559761-3.909562-.5976095-1.792828-.5976095-2.988047-.5976095-2.988047" fill="#000"/>
      <path d="M170.61753 162.848904s4.183267-8.366534 19.123506-8.366534c7.196414 0 12.362749.80259 19.123506 4.183267 4.780876 2.390438 5.378486 4.780877 5.378486 4.780877s0 1.195219-.59761 2.988047c-.188845.567132-.55996 2.091036-1.655976 3.909562-2.368327 3.930478-8.136454 9.237849-22.846016 9.237849-21.513944 0-18.525896-16.733068-18.525896-16.733068" fill="#FFF"/>
      <path d="M211.989741 170.344123c1.096016-1.818526 1.466534-3.34243 1.655976-3.909562.597609-1.792828.597609-2.988047.597609-2.988047s1.19522-3.585658-3.585657-5.976096c-6.761355-3.380677-13.74502-4.183267-20.916335-3.585657-4.513147.375896-11.408366 1.675099-15.537848 4.183267-2.432271 1.47729-3.585658 4.780876-3.585658 4.780876l-.113545 2.982669s1.906374-3.580278 16.846613-3.580278c16.733068 0 19.721116 1.195219 22.709163 2.988047 2.988048 1.792829 2.444224 4.171913 2.444224 4.171913l-.514542.932868z" fill="#D9D9D9"/>
      <path d="M175.099601 164.641733c0 7.756374 6.28745 14.043824 14.043825 14.043824 7.756374 0 14.043825-6.28745 14.043825-14.043824 0-4.71514-2.323506-8.886454-5.88765-11.434064-2.299004-1.642829-5.114342-.518127-8.156175-.518127-3.745219 0-7.148008-.625698-9.665737 1.763545-2.697012 2.558964-4.378088 6.17749-4.378088 10.188646" fill="#361D1B"/>
    </g>
    <g transform="translate(176.89243 163.844821)">
      <mask id="h" fill="#fff">
        <use xlink:href="#f"/>
      </mask>
      <path d="M.27310757 5.56135458C2.04322709 9.94840637 6.33346614 13.0476096 11.3545817 13.0476096c5.0193227 0 9.3077689-3.09621518 11.0790836-7.48087653-.0812749-.22529881-2.0390438-5.36772909-11.975498-5.36772909-9.8336653 0-10.17370515 5.03904383-10.18505973 5.3623506" fill="url(#g)" mask="url(#h)"/>
    </g>
    <g>
      <path d="M188.247012 152.9883467c6.601195 0 11.952191 5.350996 11.952191 11.9521912 0 1.5818725-.314343 3.0890438-.873108 4.4707171-.081275-.2252988-2.039044-5.3671314-11.975498-5.3671314-9.833665 0-10.173107 5.0390438-10.18506 5.3623506-.556972-1.3810757-.870717-2.8858566-.870717-4.4659363 0-6.6011952 5.350996-11.9521912 11.952192-11.9521912" fill="#521F0F"/>
      <path d="M183.466135 163.7453188c0 2.3103585 1.605777 4.1832669 3.585657 4.1832669 1.979881 0 3.585658-1.8729084 3.585658-4.1832669 0-2.3103586-1.605777-4.183267-3.585658-4.183267-1.97988 0-3.585657 1.8729084-3.585657 4.183267" fill="#361D1B"/>
      <path d="M166.434263 155.6775897s9.561753-4.1832669 19.721115-6.5737052c10.159363-2.3904382 20.829681-5.2350597 32.227889-.2270916 0 0-1.152192-5.749004-5.335459-7.5418327-4.183267-1.7928287-7.768924-2.3904382-16.733067-.5976096-8.964144 1.7928287-17.891235 4.2472112-25.099602 8.3665339-4.183267 2.3904383-4.780876 6.5737052-4.780876 6.5737052" fill="#000"/>
      <path d="M214.243028 163.446514s-.59761-2.3904383-5.378487-4.7808765c-6.760757-3.3806773-11.927091-2.9880478-19.123506-2.9880478-14.940239 0-19.123505 7.1713147-19.123505 7.1713147l-4.780877 2.9880478s2.988048-4.1832669 6.573705-7.7689243c.671116-.6711155 1.36255-1.3625498 2.122709-2.0444223 3.300598-2.9605577 5.49263-4.5292828 15.207968-4.5292828 4.412152 0 11.01514-.4691235 14.753188.6950199 3.855777 1.2005976 7.206573 2.8673307 9.748805 4.6834661 4.183266 2.9880478 5.378486 5.3784861 5.378486 5.3784861-1.281275 2.5619522-4.926694 5.8332669-6.904781 7.4928287-.279084.2342629-.525897.4368525-.727291.6 1.096016-1.8185259 1.467131-3.3424303 1.655976-3.9095618.59761-1.7928287.59761-2.9880478.59761-2.9880478" fill="#000"/>
      <path d="M66.8563741 174.5022909l-1.41812745-2.0916335s-2.39043825-2.3904382-4.7808765 0c-2.39043825 2.3904383-2.9880478 5.9760956-2.9880478 5.9760956s-1.7928287 5.976096 1.19521912 12.549801c0 0-1.19521913-6.573705 2.39043824-11.354582 3.58565737-4.7808763 5.60139439-5.0796811 5.60139439-5.0796811" fill="#D9AB77"/>
      <path d="M65.16424266 166.2016734s2.66414344-1.559761 4.45697214 1.4282868c1.7928287 2.9880478 3.8844621 8.0677291 3.8844621 8.0677291s-.4344621-7.2047809-1.1952191-26.8924303c-.5623506-14.5691235 11.3545817-22.7091633 11.3545817-22.7091633s-2.8954184-21.5091634 8.0677291-28.9840638c13.1474103-8.9641434 27.2037848-5.2768924 27.2037848-5.2768924s12.8360558 2.8864542 31.3619522 2.8864542l-11.3545817-15.53784863-41.8326693 4.7808765-24.501992 19.72111553-5.97609564 23.3067729-2.39043824 26.2948207.92151394 12.9143427zM235.433067 166.2016734s-2.664143-1.559761-4.456972 1.4282868c-1.792828 2.9880478-3.884462 8.0677291-3.884462 8.0677291s.43506-7.2047809 1.195219-26.8924303c.562948-14.5691235-11.354581-22.7091633-11.354581-22.7091633s2.896015-21.5091634-8.06773-28.9840638c-13.14741-8.9641434-27.203784-5.2768924-27.203784-5.2768924s-12.836056 2.8864542-31.3619526 2.8864542l11.3545816-15.53784863 41.832669 4.7808765 24.501992 19.72111553 5.976096 23.3067729 2.390438 26.2948207-.921514 12.9143427zM94.7211152 186.155677c0 .659761-.5354582 1.195219-1.1952192 1.195219-.6597609 0-1.1952191-.535458-1.1952191-1.195219s.5354582-1.195219 1.1952191-1.195219c.659761 0 1.1952192.535458 1.1952192 1.195219" fill="#000"/>
    </g>
    <path d="M196.710418 157.405637c.332271.755379-.378884 1.798208-1.587848 2.328885-1.208964.531275-2.457968.349004-2.789044-.406375-.332271-.755378.378884-1.798207 1.587849-2.329482 1.208366-.530677 2.45737-.349004 2.789043.406972" fill="#FFF"/>
  </g>
</svg>
